<svg xmlns="http://www.w3.org/2000/svg" width="401" height="118.97435899943923" style=""><rect id="backgroundrect" width="100%" height="100%" x="0" y="0" fill="#ffffff" stroke="#dadada" class="" style="" stroke-opacity="1" fill-opacity="1" opacity="1"/>
 <g style="" class="currentLayer">
  <title>Layer 1</title>
  <path id="svg_1" d="m25.614102411270142,30.48717951774597 l0,51.88 q0,7.35 1.73,11.05 q3.06,6.55 12,6.5600000000000005 q11.48,0 15.71,-9.32 q2.2,-5.06 2.2,-13.34 l0,-46.83 l22.82,0 l0,86 l-21.86,0 l0,-12.09 c-0.21000000000000002,0.26 -0.7400000000000001,1 -1.57,2.36 a15.9,15.9 0 0 1 -3,3.48 a31.44,31.44 0 0 1 -10.2,6.47 a34.57,34.57 0 0 1 -11.52,1.78 q-19,0 -25.66,-13.74 q-3.7,-7.61 -3.7,-22.38 l0,-51.88 l23.05,0 z" class=""/>
  <path id="svg_2" d="m140.44,29c0.29,0 0.93,0.07 1.93,0.12l0,23.06c-1.42,-0.16 -2.68,-0.27 -3.79,-0.32s-2,-0.08 -2.68,-0.08q-13.58,0 -18.23,8.84q-2.61,5 -2.61,15.32l0,41.12l-22.65,0l0,-86.06l21.47,0l0,15q5.2,-8.61 9.08,-11.76q6.3,-5.24 16.41,-5.24l1.07,0z"/>
  <path id="svg_3" fill="#cb3b0f" d="m177.56,86l-22.81,0l0,-86l22.81,0l0,86zm-22.81,10.3l22.81,0l0,20.76l-22.81,0l0,-20.76z"/>
  <path id="svg_4" fill="#ea9b1c" d="m210.13,86l-22.82,0l0,-86l22.82,0l0,86zm-22.82,10.3l22.82,0l0,20.76l-22.82,0l0,-20.76z"/>
  <path id="svg_5" fill="#577a27" d="m242.69,20.76l-22.81,0l0,-20.76l22.81,0l0,20.76zm-22.81,10.24l22.81,0l0,86l-22.81,0l0,-86z"/>
  <path id="svg_6" d="m333.45,41.36q9.66,12.24 9.66,31.58q0,20 -9.53,33.23t-26.58,13.18q-10.71,0 -17.21,-4.26q-3.89,-2.53 -8.41,-8.84l0,10.81l-22.18,0l0,-116.19l22.49,0l0,41.36a32.94,32.94 0 0 1 9.46,-9.16q6.11,-3.94 15.57,-3.94q17.07,0 26.73,12.23zm-18.8,52.41q4.86,-7 4.85,-18.47q0,-9.15 -2.38,-15.15q-4.55,-11.37 -16.72,-11.37q-12.33,0 -16.95,11.13q-2.38,5.93 -2.39,15.32q0,11 4.94,18.31t15,7.26a15.6,15.6 0 0 0 13.65,-7.03z"/>
  <path id="svg_7" d="m363,49.73q0.31,5.06 1.74,7.42q2.59,4.34 9.47,4.34a11.79,11.79 0 0 0 5.6,-1.42q5.06,-2.68 5,-9.24t-5,-8.6q-3.07,-1.33 -11.6,-1.66l0,-9.57q7,-0.15 9.87,-1.34q5,-2.13 5,-8.21a7.91,7.91 0 0 0 -2.81,-6.45a10.56,10.56 0 0 0 -6.87,-2.25a8.91,8.91 0 0 0 -7.3,3.12a12.32,12.32 0 0 0 -2.57,8.09l-13.53,0a20.75,20.75 0 0 1 7.42,-17.37q5.96,-4.78 16.58,-4.77q10.89,0 17.33,5.17a16.55,16.55 0 0 1 6.43,13.53a14.06,14.06 0 0 1 -2.42,8.48a17.71,17.71 0 0 1 -6.55,5.41a13,13 0 0 1 7.78,4.34q3.43,3.72 3.43,11.45q0,10.59 -7.3,16.38a27.25,27.25 0 0 1 -17.49,5.8q-12.07,0 -19.37,-5.32t-7.31,-17.33l14.47,0z"/>
 </g>

</svg>